<mxfile host="Electron" modified="2024-03-18T20:08:43.575Z" agent="Mozilla/5.0 (X11; Linux x86_64) AppleWebKit/537.36 (KHTML, like Gecko) draw.io/24.0.4 Chrome/120.0.6099.109 Electron/28.1.0 Safari/537.36" etag="clsja622AtdGoHufycoB" version="24.0.4" type="device" pages="4">
  <diagram id="JgWmcChnruEpAp_GRVAy" name="client">
    <mxGraphModel dx="2207" dy="843" grid="1" gridSize="10" guides="1" tooltips="1" connect="1" arrows="1" fold="1" page="1" pageScale="1" pageWidth="827" pageHeight="1169" math="0" shadow="0">
      <root>
        <mxCell id="0" />
        <mxCell id="1" parent="0" />
        <mxCell id="36" value="&lt;span style=&quot;font-size: 14px&quot;&gt;Клиент&lt;/span&gt;" style="shape=umlActor;verticalLabelPosition=bottom;verticalAlign=top;html=1;" parent="1" vertex="1">
          <mxGeometry x="380" y="240" width="90" height="150" as="geometry" />
        </mxCell>
        <mxCell id="37" style="edgeStyle=orthogonalEdgeStyle;rounded=0;html=1;fontSize=14;endArrow=none;endFill=0;strokeColor=default;exitX=0;exitY=0.5;exitDx=0;exitDy=0;entryX=0;entryY=0.5;entryDx=0;entryDy=0;" parent="1" source="48" target="38" edge="1">
          <mxGeometry relative="1" as="geometry">
            <Array as="points">
              <mxPoint x="530" y="75" />
              <mxPoint x="530" y="275" />
            </Array>
            <mxPoint x="560" y="75" as="sourcePoint" />
            <mxPoint x="560" y="275" as="targetPoint" />
          </mxGeometry>
        </mxCell>
        <mxCell id="38" value="Изменение личной информации" style="ellipse;whiteSpace=wrap;html=1;fontSize=14;" parent="1" vertex="1">
          <mxGeometry x="570" y="240" width="200" height="70" as="geometry" />
        </mxCell>
        <mxCell id="39" style="edgeStyle=orthogonalEdgeStyle;rounded=0;html=1;fontSize=14;endArrow=none;endFill=0;strokeColor=default;exitX=0;exitY=0.5;exitDx=0;exitDy=0;" parent="1" source="40" edge="1">
          <mxGeometry relative="1" as="geometry">
            <mxPoint x="530" y="175" as="targetPoint" />
            <mxPoint x="560" y="175" as="sourcePoint" />
          </mxGeometry>
        </mxCell>
        <mxCell id="40" value="Выход из аккаунта" style="ellipse;whiteSpace=wrap;html=1;fontSize=14;" parent="1" vertex="1">
          <mxGeometry x="570" y="140" width="200" height="70" as="geometry" />
        </mxCell>
        <mxCell id="41" style="edgeStyle=orthogonalEdgeStyle;html=1;exitX=1;exitY=0.5;exitDx=0;exitDy=0;entryX=1;entryY=0.5;entryDx=0;entryDy=0;fontSize=14;strokeColor=default;rounded=0;endArrow=none;endFill=0;" parent="1" source="42" target="45" edge="1">
          <mxGeometry relative="1" as="geometry">
            <Array as="points">
              <mxPoint x="310" y="75" />
              <mxPoint x="310" y="275" />
            </Array>
          </mxGeometry>
        </mxCell>
        <mxCell id="42" value="Просмотр расписания" style="ellipse;whiteSpace=wrap;html=1;fontSize=14;" parent="1" vertex="1">
          <mxGeometry x="70" y="40" width="200" height="70" as="geometry" />
        </mxCell>
        <mxCell id="43" style="edgeStyle=orthogonalEdgeStyle;rounded=0;html=1;exitX=1;exitY=0.5;exitDx=0;exitDy=0;fontSize=14;endArrow=none;endFill=0;strokeColor=default;" parent="1" source="44" edge="1">
          <mxGeometry relative="1" as="geometry">
            <mxPoint x="310" y="175" as="targetPoint" />
          </mxGeometry>
        </mxCell>
        <mxCell id="44" value="Запись&lt;br&gt;на персональные&lt;br&gt;трениовки" style="ellipse;whiteSpace=wrap;html=1;fontSize=14;" parent="1" vertex="1">
          <mxGeometry x="70" y="140" width="200" height="70" as="geometry" />
        </mxCell>
        <mxCell id="45" value="Просмотр количества &lt;br&gt;своих баллов" style="ellipse;whiteSpace=wrap;html=1;fontSize=14;" parent="1" vertex="1">
          <mxGeometry x="70" y="240" width="200" height="70" as="geometry" />
        </mxCell>
        <mxCell id="46" style="edgeStyle=orthogonalEdgeStyle;html=1;exitX=1;exitY=0.5;exitDx=0;exitDy=0;rounded=0;endArrow=none;endFill=0;" parent="1" source="47" edge="1">
          <mxGeometry relative="1" as="geometry">
            <mxPoint x="310" y="270" as="targetPoint" />
            <Array as="points">
              <mxPoint x="310" y="365" />
            </Array>
          </mxGeometry>
        </mxCell>
        <mxCell id="47" value="Возможность заморозки абонемента" style="ellipse;whiteSpace=wrap;html=1;fontSize=14;" parent="1" vertex="1">
          <mxGeometry x="70" y="330" width="200" height="70" as="geometry" />
        </mxCell>
        <mxCell id="48" value="Авторизация" style="ellipse;whiteSpace=wrap;html=1;fontSize=14;" parent="1" vertex="1">
          <mxGeometry x="570" y="40" width="200" height="70" as="geometry" />
        </mxCell>
        <mxCell id="49" style="edgeStyle=orthogonalEdgeStyle;rounded=0;html=1;exitX=0;exitY=0.5;exitDx=0;exitDy=0;endArrow=none;endFill=0;" parent="1" source="50" edge="1">
          <mxGeometry relative="1" as="geometry">
            <mxPoint x="530" y="270" as="targetPoint" />
            <Array as="points">
              <mxPoint x="530" y="365" />
              <mxPoint x="530" y="320" />
            </Array>
          </mxGeometry>
        </mxCell>
        <mxCell id="50" value="Просмотр информации&lt;br&gt;о фитнес-клубе" style="ellipse;whiteSpace=wrap;html=1;fontSize=14;" parent="1" vertex="1">
          <mxGeometry x="570" y="330" width="200" height="70" as="geometry" />
        </mxCell>
        <mxCell id="57" style="edgeStyle=orthogonalEdgeStyle;rounded=0;html=1;exitX=1;exitY=0.5;exitDx=0;exitDy=0;endArrow=none;endFill=0;" parent="1" source="53" edge="1">
          <mxGeometry relative="1" as="geometry">
            <mxPoint x="360" y="320" as="targetPoint" />
            <Array as="points">
              <mxPoint x="310" y="465" />
              <mxPoint x="310" y="320" />
              <mxPoint x="360" y="320" />
            </Array>
          </mxGeometry>
        </mxCell>
        <mxCell id="53" value="Просмотр информации о текущем абонементе" style="ellipse;whiteSpace=wrap;html=1;fontSize=14;" parent="1" vertex="1">
          <mxGeometry x="70" y="430" width="200" height="70" as="geometry" />
        </mxCell>
        <mxCell id="58" style="edgeStyle=orthogonalEdgeStyle;rounded=0;html=1;exitX=0;exitY=0.5;exitDx=0;exitDy=0;endArrow=none;endFill=0;" parent="1" source="50" edge="1">
          <mxGeometry relative="1" as="geometry">
            <mxPoint x="480" y="320" as="targetPoint" />
            <Array as="points">
              <mxPoint x="530" y="365" />
              <mxPoint x="530" y="320" />
            </Array>
            <mxPoint x="570" y="455" as="sourcePoint" />
          </mxGeometry>
        </mxCell>
        <mxCell id="4wWkYIhWwg3KaGlGukRf-58" value="" style="endArrow=none;html=1;rounded=0;entryX=1;entryY=0.5;entryDx=0;entryDy=0;exitX=0;exitY=0.5;exitDx=0;exitDy=0;edgeStyle=orthogonalEdgeStyle;" parent="1" source="42" target="4wWkYIhWwg3KaGlGukRf-59" edge="1">
          <mxGeometry width="50" height="50" relative="1" as="geometry">
            <mxPoint x="430" y="390" as="sourcePoint" />
            <mxPoint x="-30" y="100" as="targetPoint" />
          </mxGeometry>
        </mxCell>
        <mxCell id="4wWkYIhWwg3KaGlGukRf-59" value="Расписание &lt;br&gt;групповых тренировок&lt;br&gt;с фильтрами" style="ellipse;whiteSpace=wrap;html=1;fontSize=14;" parent="1" vertex="1">
          <mxGeometry x="-220" y="100" width="200" height="70" as="geometry" />
        </mxCell>
        <mxCell id="4wWkYIhWwg3KaGlGukRf-60" value="Расписание персональных&amp;nbsp;&lt;br&gt;тренировок" style="ellipse;whiteSpace=wrap;html=1;fontSize=14;" parent="1" vertex="1">
          <mxGeometry x="-220" width="200" height="70" as="geometry" />
        </mxCell>
        <mxCell id="4wWkYIhWwg3KaGlGukRf-61" value="" style="endArrow=none;html=1;rounded=0;entryX=1;entryY=0.5;entryDx=0;entryDy=0;exitX=0;exitY=0.5;exitDx=0;exitDy=0;edgeStyle=orthogonalEdgeStyle;" parent="1" source="42" target="4wWkYIhWwg3KaGlGukRf-60" edge="1">
          <mxGeometry width="50" height="50" relative="1" as="geometry">
            <mxPoint x="430" y="390" as="sourcePoint" />
            <mxPoint x="480" y="340" as="targetPoint" />
          </mxGeometry>
        </mxCell>
        <mxCell id="4wWkYIhWwg3KaGlGukRf-64" value="Общая информация" style="ellipse;whiteSpace=wrap;html=1;fontSize=14;" parent="1" vertex="1">
          <mxGeometry x="820" y="280" width="200" height="70" as="geometry" />
        </mxCell>
        <mxCell id="4wWkYIhWwg3KaGlGukRf-66" value="" style="endArrow=none;html=1;rounded=0;entryX=0;entryY=0.5;entryDx=0;entryDy=0;exitX=1;exitY=0.5;exitDx=0;exitDy=0;edgeStyle=orthogonalEdgeStyle;" parent="1" source="50" target="4wWkYIhWwg3KaGlGukRf-64" edge="1">
          <mxGeometry width="50" height="50" relative="1" as="geometry">
            <mxPoint x="430" y="390" as="sourcePoint" />
            <mxPoint x="480" y="340" as="targetPoint" />
          </mxGeometry>
        </mxCell>
        <mxCell id="4wWkYIhWwg3KaGlGukRf-68" value="Информация&amp;nbsp; о тренерах" style="ellipse;whiteSpace=wrap;html=1;fontSize=14;" parent="1" vertex="1">
          <mxGeometry x="820" y="370" width="200" height="70" as="geometry" />
        </mxCell>
        <mxCell id="4wWkYIhWwg3KaGlGukRf-69" value="" style="endArrow=none;html=1;rounded=0;entryX=0;entryY=0.5;entryDx=0;entryDy=0;exitX=1;exitY=0.5;exitDx=0;exitDy=0;edgeStyle=orthogonalEdgeStyle;" parent="1" source="50" target="4wWkYIhWwg3KaGlGukRf-68" edge="1">
          <mxGeometry width="50" height="50" relative="1" as="geometry">
            <mxPoint x="430" y="390" as="sourcePoint" />
            <mxPoint x="480" y="340" as="targetPoint" />
          </mxGeometry>
        </mxCell>
      </root>
    </mxGraphModel>
  </diagram>
  <diagram id="VQe6DZZ4oRjBUS93IAuy" name="admin">
    <mxGraphModel dx="1380" dy="843" grid="1" gridSize="10" guides="1" tooltips="1" connect="1" arrows="1" fold="1" page="1" pageScale="1" pageWidth="1100" pageHeight="850" math="0" shadow="0">
      <root>
        <mxCell id="0" />
        <mxCell id="1" parent="0" />
        <mxCell id="sJf_m1rJ1l_5RSg0pAdF-1" value="&lt;span style=&quot;font-size: 14px;&quot;&gt;Администратор&lt;/span&gt;" style="shape=umlActor;verticalLabelPosition=bottom;verticalAlign=top;html=1;" parent="1" vertex="1">
          <mxGeometry x="730" y="720" width="90" height="150" as="geometry" />
        </mxCell>
        <mxCell id="sJf_m1rJ1l_5RSg0pAdF-2" style="edgeStyle=orthogonalEdgeStyle;rounded=0;html=1;fontSize=14;endArrow=none;endFill=0;strokeColor=default;exitX=0;exitY=0.5;exitDx=0;exitDy=0;entryX=0;entryY=0.5;entryDx=0;entryDy=0;" parent="1" source="sJf_m1rJ1l_5RSg0pAdF-13" target="sJf_m1rJ1l_5RSg0pAdF-3" edge="1">
          <mxGeometry relative="1" as="geometry">
            <Array as="points">
              <mxPoint x="880" y="555" />
              <mxPoint x="880" y="755" />
            </Array>
            <mxPoint x="910" y="555" as="sourcePoint" />
            <mxPoint x="910" y="755" as="targetPoint" />
          </mxGeometry>
        </mxCell>
        <mxCell id="sJf_m1rJ1l_5RSg0pAdF-3" value="Выход из аккаунта" style="ellipse;whiteSpace=wrap;html=1;fontSize=14;" parent="1" vertex="1">
          <mxGeometry x="920" y="720" width="200" height="70" as="geometry" />
        </mxCell>
        <mxCell id="sJf_m1rJ1l_5RSg0pAdF-4" style="edgeStyle=orthogonalEdgeStyle;rounded=0;html=1;fontSize=14;endArrow=none;endFill=0;strokeColor=default;exitX=0;exitY=0.5;exitDx=0;exitDy=0;" parent="1" source="sJf_m1rJ1l_5RSg0pAdF-5" edge="1">
          <mxGeometry relative="1" as="geometry">
            <mxPoint x="880" y="655" as="targetPoint" />
            <mxPoint x="910" y="655" as="sourcePoint" />
          </mxGeometry>
        </mxCell>
        <mxCell id="sJf_m1rJ1l_5RSg0pAdF-5" value="Авторизация" style="ellipse;whiteSpace=wrap;html=1;fontSize=14;" parent="1" vertex="1">
          <mxGeometry x="920" y="620" width="200" height="70" as="geometry" />
        </mxCell>
        <mxCell id="sJf_m1rJ1l_5RSg0pAdF-6" style="edgeStyle=orthogonalEdgeStyle;html=1;exitX=1;exitY=0.5;exitDx=0;exitDy=0;entryX=1;entryY=0.5;entryDx=0;entryDy=0;fontSize=14;strokeColor=default;rounded=0;endArrow=none;endFill=0;" parent="1" source="sJf_m1rJ1l_5RSg0pAdF-7" target="sJf_m1rJ1l_5RSg0pAdF-10" edge="1">
          <mxGeometry relative="1" as="geometry">
            <Array as="points">
              <mxPoint x="660" y="555" />
              <mxPoint x="660" y="755" />
            </Array>
          </mxGeometry>
        </mxCell>
        <mxCell id="sJf_m1rJ1l_5RSg0pAdF-7" value="Изменение информации&lt;br&gt;о клиентах" style="ellipse;whiteSpace=wrap;html=1;fontSize=14;" parent="1" vertex="1">
          <mxGeometry x="420" y="520" width="200" height="70" as="geometry" />
        </mxCell>
        <mxCell id="sJf_m1rJ1l_5RSg0pAdF-8" style="edgeStyle=orthogonalEdgeStyle;rounded=0;html=1;exitX=1;exitY=0.5;exitDx=0;exitDy=0;fontSize=14;endArrow=none;endFill=0;strokeColor=default;" parent="1" source="sJf_m1rJ1l_5RSg0pAdF-9" edge="1">
          <mxGeometry relative="1" as="geometry">
            <mxPoint x="660" y="655" as="targetPoint" />
          </mxGeometry>
        </mxCell>
        <mxCell id="sJf_m1rJ1l_5RSg0pAdF-9" value="Изменение информации о тренерах" style="ellipse;whiteSpace=wrap;html=1;fontSize=14;" parent="1" vertex="1">
          <mxGeometry x="420" y="620" width="200" height="70" as="geometry" />
        </mxCell>
        <mxCell id="sJf_m1rJ1l_5RSg0pAdF-10" value="Регистрация" style="ellipse;whiteSpace=wrap;html=1;fontSize=14;" parent="1" vertex="1">
          <mxGeometry x="420" y="720" width="200" height="70" as="geometry" />
        </mxCell>
        <mxCell id="sJf_m1rJ1l_5RSg0pAdF-11" style="edgeStyle=orthogonalEdgeStyle;html=1;rounded=0;endArrow=none;endFill=0;" parent="1" edge="1">
          <mxGeometry relative="1" as="geometry">
            <mxPoint x="660" y="750" as="targetPoint" />
            <Array as="points">
              <mxPoint x="660" y="845" />
            </Array>
            <mxPoint x="660" y="880" as="sourcePoint" />
          </mxGeometry>
        </mxCell>
        <mxCell id="sJf_m1rJ1l_5RSg0pAdF-13" value="Изменение абонементов клиентов" style="ellipse;whiteSpace=wrap;html=1;fontSize=14;" parent="1" vertex="1">
          <mxGeometry x="920" y="520" width="200" height="70" as="geometry" />
        </mxCell>
        <mxCell id="sJf_m1rJ1l_5RSg0pAdF-14" style="edgeStyle=orthogonalEdgeStyle;rounded=0;html=1;exitX=0;exitY=0.5;exitDx=0;exitDy=0;endArrow=none;endFill=0;" parent="1" source="sJf_m1rJ1l_5RSg0pAdF-15" edge="1">
          <mxGeometry relative="1" as="geometry">
            <mxPoint x="880" y="750" as="targetPoint" />
            <Array as="points">
              <mxPoint x="880" y="845" />
              <mxPoint x="880" y="800" />
            </Array>
          </mxGeometry>
        </mxCell>
        <mxCell id="sJf_m1rJ1l_5RSg0pAdF-15" value="Просмотр информации&lt;br&gt;о фитнес-клубе" style="ellipse;whiteSpace=wrap;html=1;fontSize=14;" parent="1" vertex="1">
          <mxGeometry x="920" y="810" width="200" height="70" as="geometry" />
        </mxCell>
        <mxCell id="sJf_m1rJ1l_5RSg0pAdF-16" style="edgeStyle=orthogonalEdgeStyle;rounded=0;html=1;exitX=1;exitY=0.5;exitDx=0;exitDy=0;endArrow=none;endFill=0;" parent="1" source="sJf_m1rJ1l_5RSg0pAdF-17" edge="1">
          <mxGeometry relative="1" as="geometry">
            <mxPoint x="710" y="800" as="targetPoint" />
            <Array as="points">
              <mxPoint x="660" y="895" />
              <mxPoint x="660" y="800" />
            </Array>
          </mxGeometry>
        </mxCell>
        <mxCell id="sJf_m1rJ1l_5RSg0pAdF-17" value="Изменение расписания" style="ellipse;whiteSpace=wrap;html=1;fontSize=14;" parent="1" vertex="1">
          <mxGeometry x="420" y="860" width="200" height="70" as="geometry" />
        </mxCell>
        <mxCell id="sJf_m1rJ1l_5RSg0pAdF-18" style="edgeStyle=orthogonalEdgeStyle;rounded=0;html=1;exitX=0;exitY=0.5;exitDx=0;exitDy=0;endArrow=none;endFill=0;" parent="1" source="sJf_m1rJ1l_5RSg0pAdF-15" edge="1">
          <mxGeometry relative="1" as="geometry">
            <mxPoint x="830" y="800" as="targetPoint" />
            <Array as="points">
              <mxPoint x="880" y="845" />
              <mxPoint x="880" y="800" />
            </Array>
            <mxPoint x="920" y="935" as="sourcePoint" />
          </mxGeometry>
        </mxCell>
        <mxCell id="sJf_m1rJ1l_5RSg0pAdF-19" value="" style="edgeStyle=orthogonalEdgeStyle;rounded=0;html=1;exitX=0;exitY=0.5;exitDx=0;exitDy=0;fontSize=14;endArrow=none;endFill=0;strokeColor=default;" parent="1" source="sJf_m1rJ1l_5RSg0pAdF-7" target="sJf_m1rJ1l_5RSg0pAdF-20" edge="1">
          <mxGeometry width="50" height="50" relative="1" as="geometry">
            <mxPoint x="780" y="870" as="sourcePoint" />
            <mxPoint x="320" y="580" as="targetPoint" />
          </mxGeometry>
        </mxCell>
        <mxCell id="sJf_m1rJ1l_5RSg0pAdF-20" value="Удаление старого" style="ellipse;whiteSpace=wrap;html=1;fontSize=14;" parent="1" vertex="1">
          <mxGeometry x="130" y="570" width="200" height="70" as="geometry" />
        </mxCell>
        <mxCell id="sJf_m1rJ1l_5RSg0pAdF-21" value="Добавление нового" style="ellipse;whiteSpace=wrap;html=1;fontSize=14;" parent="1" vertex="1">
          <mxGeometry x="130" y="480" width="200" height="70" as="geometry" />
        </mxCell>
        <mxCell id="sJf_m1rJ1l_5RSg0pAdF-22" value="" style="edgeStyle=orthogonalEdgeStyle;rounded=0;html=1;fontSize=14;endArrow=none;endFill=0;strokeColor=default;exitX=0;exitY=0.5;exitDx=0;exitDy=0;" parent="1" source="sJf_m1rJ1l_5RSg0pAdF-7" target="sJf_m1rJ1l_5RSg0pAdF-21" edge="1">
          <mxGeometry width="50" height="50" relative="1" as="geometry">
            <mxPoint x="690" y="540" as="sourcePoint" />
            <mxPoint x="830" y="820" as="targetPoint" />
          </mxGeometry>
        </mxCell>
        <mxCell id="sJf_m1rJ1l_5RSg0pAdF-24" value="Общая информация" style="ellipse;whiteSpace=wrap;html=1;fontSize=14;" parent="1" vertex="1">
          <mxGeometry x="1170" y="760" width="200" height="70" as="geometry" />
        </mxCell>
        <mxCell id="sJf_m1rJ1l_5RSg0pAdF-25" value="" style="endArrow=none;html=1;rounded=0;entryX=0;entryY=0.5;entryDx=0;entryDy=0;exitX=1;exitY=0.5;exitDx=0;exitDy=0;edgeStyle=orthogonalEdgeStyle;" parent="1" source="sJf_m1rJ1l_5RSg0pAdF-15" target="sJf_m1rJ1l_5RSg0pAdF-24" edge="1">
          <mxGeometry width="50" height="50" relative="1" as="geometry">
            <mxPoint x="780" y="870" as="sourcePoint" />
            <mxPoint x="830" y="820" as="targetPoint" />
          </mxGeometry>
        </mxCell>
        <mxCell id="sJf_m1rJ1l_5RSg0pAdF-27" value="Информация&amp;nbsp; о тренерах" style="ellipse;whiteSpace=wrap;html=1;fontSize=14;" parent="1" vertex="1">
          <mxGeometry x="1170" y="870" width="200" height="70" as="geometry" />
        </mxCell>
        <mxCell id="sJf_m1rJ1l_5RSg0pAdF-28" value="" style="endArrow=none;html=1;rounded=0;entryX=0;entryY=0.5;entryDx=0;entryDy=0;exitX=1;exitY=0.5;exitDx=0;exitDy=0;edgeStyle=orthogonalEdgeStyle;" parent="1" source="sJf_m1rJ1l_5RSg0pAdF-15" target="sJf_m1rJ1l_5RSg0pAdF-27" edge="1">
          <mxGeometry width="50" height="50" relative="1" as="geometry">
            <mxPoint x="780" y="870" as="sourcePoint" />
            <mxPoint x="830" y="820" as="targetPoint" />
          </mxGeometry>
        </mxCell>
        <mxCell id="sJf_m1rJ1l_5RSg0pAdF-57" value="Просмотр информации&lt;br&gt;о клиентах" style="ellipse;whiteSpace=wrap;html=1;fontSize=14;" parent="1" vertex="1">
          <mxGeometry x="920" y="900" width="200" height="70" as="geometry" />
        </mxCell>
        <mxCell id="sJf_m1rJ1l_5RSg0pAdF-58" value="" style="endArrow=none;html=1;rounded=0;entryX=0;entryY=0.5;entryDx=0;entryDy=0;edgeStyle=orthogonalEdgeStyle;" parent="1" target="sJf_m1rJ1l_5RSg0pAdF-57" edge="1">
          <mxGeometry width="50" height="50" relative="1" as="geometry">
            <mxPoint x="880" y="840" as="sourcePoint" />
            <mxPoint x="910" y="930" as="targetPoint" />
            <Array as="points">
              <mxPoint x="880" y="935" />
            </Array>
          </mxGeometry>
        </mxCell>
        <mxCell id="sJf_m1rJ1l_5RSg0pAdF-59" value="Изменение существующего" style="ellipse;whiteSpace=wrap;html=1;fontSize=14;" parent="1" vertex="1">
          <mxGeometry x="130" y="660" width="200" height="70" as="geometry" />
        </mxCell>
        <mxCell id="X6Lug7Ojs9OI_3mjuRGA-1" value="" style="endArrow=none;html=1;rounded=0;entryX=0;entryY=0.5;entryDx=0;entryDy=0;exitX=1;exitY=0.5;exitDx=0;exitDy=0;edgeStyle=orthogonalEdgeStyle;" parent="1" source="sJf_m1rJ1l_5RSg0pAdF-59" target="sJf_m1rJ1l_5RSg0pAdF-7" edge="1">
          <mxGeometry width="50" height="50" relative="1" as="geometry">
            <mxPoint x="340" y="820" as="sourcePoint" />
            <mxPoint x="390" y="770" as="targetPoint" />
          </mxGeometry>
        </mxCell>
        <mxCell id="X6Lug7Ojs9OI_3mjuRGA-2" value="" style="endArrow=none;html=1;rounded=0;entryX=0;entryY=0.5;entryDx=0;entryDy=0;exitX=1;exitY=0.5;exitDx=0;exitDy=0;edgeStyle=orthogonalEdgeStyle;" parent="1" source="sJf_m1rJ1l_5RSg0pAdF-20" target="sJf_m1rJ1l_5RSg0pAdF-9" edge="1">
          <mxGeometry width="50" height="50" relative="1" as="geometry">
            <mxPoint x="380" y="655" as="sourcePoint" />
            <mxPoint x="380" y="750" as="targetPoint" />
          </mxGeometry>
        </mxCell>
        <mxCell id="9XiOQbKyr_jy2MW8L0S3-1" value="Изменение расписания групповых тренировок" style="ellipse;whiteSpace=wrap;html=1;fontSize=14;" parent="1" vertex="1">
          <mxGeometry x="130" y="790" width="200" height="70" as="geometry" />
        </mxCell>
        <mxCell id="9XiOQbKyr_jy2MW8L0S3-2" value="Изменение расписания персональных тренировок" style="ellipse;whiteSpace=wrap;html=1;fontSize=14;" parent="1" vertex="1">
          <mxGeometry x="130" y="895" width="200" height="70" as="geometry" />
        </mxCell>
        <mxCell id="9XiOQbKyr_jy2MW8L0S3-4" value="" style="endArrow=none;html=1;rounded=0;entryX=0;entryY=0.5;entryDx=0;entryDy=0;exitX=1;exitY=0.5;exitDx=0;exitDy=0;edgeStyle=orthogonalEdgeStyle;" parent="1" source="9XiOQbKyr_jy2MW8L0S3-1" target="sJf_m1rJ1l_5RSg0pAdF-17" edge="1">
          <mxGeometry width="50" height="50" relative="1" as="geometry">
            <mxPoint x="300" y="930" as="sourcePoint" />
            <mxPoint x="350" y="880" as="targetPoint" />
          </mxGeometry>
        </mxCell>
        <mxCell id="9XiOQbKyr_jy2MW8L0S3-5" value="" style="endArrow=none;html=1;rounded=0;exitX=1;exitY=0.5;exitDx=0;exitDy=0;entryX=0;entryY=0.5;entryDx=0;entryDy=0;edgeStyle=orthogonalEdgeStyle;" parent="1" source="9XiOQbKyr_jy2MW8L0S3-2" target="sJf_m1rJ1l_5RSg0pAdF-17" edge="1">
          <mxGeometry width="50" height="50" relative="1" as="geometry">
            <mxPoint x="380" y="970" as="sourcePoint" />
            <mxPoint x="420" y="890" as="targetPoint" />
          </mxGeometry>
        </mxCell>
        <mxCell id="wxDkS1prS-b1TXIRcQyf-8" value="Заморозка" style="ellipse;whiteSpace=wrap;html=1;fontSize=14;" parent="1" vertex="1">
          <mxGeometry x="1170" y="520" width="200" height="70" as="geometry" />
        </mxCell>
        <mxCell id="wxDkS1prS-b1TXIRcQyf-9" value="Добавление нового" style="ellipse;whiteSpace=wrap;html=1;fontSize=14;" parent="1" vertex="1">
          <mxGeometry x="1170" y="420" width="200" height="70" as="geometry" />
        </mxCell>
        <mxCell id="wxDkS1prS-b1TXIRcQyf-10" value="" style="endArrow=none;html=1;rounded=0;entryX=0;entryY=0.5;entryDx=0;entryDy=0;exitX=1;exitY=0.5;exitDx=0;exitDy=0;edgeStyle=orthogonalEdgeStyle;" parent="1" target="wxDkS1prS-b1TXIRcQyf-9" edge="1">
          <mxGeometry width="50" height="50" relative="1" as="geometry">
            <mxPoint x="1120" y="555" as="sourcePoint" />
            <mxPoint x="830" y="530" as="targetPoint" />
          </mxGeometry>
        </mxCell>
        <mxCell id="wxDkS1prS-b1TXIRcQyf-11" value="" style="endArrow=none;html=1;rounded=0;entryX=0;entryY=0.5;entryDx=0;entryDy=0;exitX=1;exitY=0.5;exitDx=0;exitDy=0;edgeStyle=orthogonalEdgeStyle;" parent="1" target="wxDkS1prS-b1TXIRcQyf-8" edge="1">
          <mxGeometry width="50" height="50" relative="1" as="geometry">
            <mxPoint x="1120" y="555" as="sourcePoint" />
            <mxPoint x="1180" y="570" as="targetPoint" />
          </mxGeometry>
        </mxCell>
        <mxCell id="wxDkS1prS-b1TXIRcQyf-12" value="Удаление" style="ellipse;whiteSpace=wrap;html=1;fontSize=14;" parent="1" vertex="1">
          <mxGeometry x="1170" y="610" width="200" height="70" as="geometry" />
        </mxCell>
        <mxCell id="wxDkS1prS-b1TXIRcQyf-13" value="" style="endArrow=none;html=1;rounded=0;entryX=0;entryY=0.5;entryDx=0;entryDy=0;exitX=1;exitY=0.5;exitDx=0;exitDy=0;edgeStyle=orthogonalEdgeStyle;" parent="1" target="wxDkS1prS-b1TXIRcQyf-12" edge="1">
          <mxGeometry width="50" height="50" relative="1" as="geometry">
            <mxPoint x="1120" y="555" as="sourcePoint" />
            <mxPoint x="830" y="530" as="targetPoint" />
          </mxGeometry>
        </mxCell>
        <mxCell id="P0bPWnZrPJMD0_GO6duf-1" value="Управление бонусами клиентов" style="ellipse;whiteSpace=wrap;html=1;fontSize=14;" parent="1" vertex="1">
          <mxGeometry x="920" y="990" width="200" height="70" as="geometry" />
        </mxCell>
        <mxCell id="P0bPWnZrPJMD0_GO6duf-2" value="" style="endArrow=none;html=1;rounded=0;entryX=0;entryY=0.5;entryDx=0;entryDy=0;edgeStyle=orthogonalEdgeStyle;" parent="1" edge="1">
          <mxGeometry width="50" height="50" relative="1" as="geometry">
            <mxPoint x="880" y="932.5" as="sourcePoint" />
            <mxPoint x="920" y="1027.5" as="targetPoint" />
            <Array as="points">
              <mxPoint x="880" y="1027.5" />
            </Array>
          </mxGeometry>
        </mxCell>
      </root>
    </mxGraphModel>
  </diagram>
  <diagram id="lR87RK5CVh3wp8Wt9_yp" name="trainer">
    <mxGraphModel dx="1380" dy="843" grid="1" gridSize="10" guides="1" tooltips="1" connect="1" arrows="1" fold="1" page="1" pageScale="1" pageWidth="1100" pageHeight="850" math="0" shadow="0">
      <root>
        <mxCell id="0" />
        <mxCell id="1" parent="0" />
        <mxCell id="DOnnzGHvciUqaRiP9nLU-1" value="&lt;span style=&quot;font-size: 14px&quot;&gt;Тренер&lt;/span&gt;" style="shape=umlActor;verticalLabelPosition=bottom;verticalAlign=top;html=1;" parent="1" vertex="1">
          <mxGeometry x="790" y="650" width="90" height="150" as="geometry" />
        </mxCell>
        <mxCell id="DOnnzGHvciUqaRiP9nLU-2" style="edgeStyle=orthogonalEdgeStyle;rounded=0;html=1;fontSize=14;endArrow=none;endFill=0;strokeColor=default;exitX=0;exitY=0.5;exitDx=0;exitDy=0;entryX=0;entryY=0.5;entryDx=0;entryDy=0;" parent="1" source="DOnnzGHvciUqaRiP9nLU-13" target="DOnnzGHvciUqaRiP9nLU-3" edge="1">
          <mxGeometry relative="1" as="geometry">
            <Array as="points">
              <mxPoint x="940" y="515" />
              <mxPoint x="940" y="715" />
            </Array>
            <mxPoint x="970" y="515" as="sourcePoint" />
            <mxPoint x="970" y="715" as="targetPoint" />
          </mxGeometry>
        </mxCell>
        <mxCell id="DOnnzGHvciUqaRiP9nLU-3" value="Изменение личной информации" style="ellipse;whiteSpace=wrap;html=1;fontSize=14;" parent="1" vertex="1">
          <mxGeometry x="980" y="680" width="200" height="70" as="geometry" />
        </mxCell>
        <mxCell id="DOnnzGHvciUqaRiP9nLU-4" style="edgeStyle=orthogonalEdgeStyle;rounded=0;html=1;fontSize=14;endArrow=none;endFill=0;strokeColor=default;exitX=0;exitY=0.5;exitDx=0;exitDy=0;" parent="1" source="DOnnzGHvciUqaRiP9nLU-5" edge="1">
          <mxGeometry relative="1" as="geometry">
            <mxPoint x="940" y="615" as="targetPoint" />
            <mxPoint x="970" y="615" as="sourcePoint" />
          </mxGeometry>
        </mxCell>
        <mxCell id="DOnnzGHvciUqaRiP9nLU-5" value="Выход из аккаунта" style="ellipse;whiteSpace=wrap;html=1;fontSize=14;" parent="1" vertex="1">
          <mxGeometry x="980" y="580" width="200" height="70" as="geometry" />
        </mxCell>
        <mxCell id="DOnnzGHvciUqaRiP9nLU-6" style="edgeStyle=orthogonalEdgeStyle;html=1;exitX=1;exitY=0.5;exitDx=0;exitDy=0;fontSize=14;strokeColor=default;rounded=0;endArrow=none;endFill=0;" parent="1" source="DOnnzGHvciUqaRiP9nLU-7" edge="1">
          <mxGeometry relative="1" as="geometry">
            <Array as="points">
              <mxPoint x="720" y="565" />
            </Array>
            <mxPoint x="720" y="720" as="targetPoint" />
          </mxGeometry>
        </mxCell>
        <mxCell id="DOnnzGHvciUqaRiP9nLU-7" value="Просмотр расписания" style="ellipse;whiteSpace=wrap;html=1;fontSize=14;" parent="1" vertex="1">
          <mxGeometry x="480" y="530" width="200" height="70" as="geometry" />
        </mxCell>
        <mxCell id="DOnnzGHvciUqaRiP9nLU-8" style="edgeStyle=orthogonalEdgeStyle;rounded=0;html=1;exitX=1;exitY=0.5;exitDx=0;exitDy=0;fontSize=14;endArrow=none;endFill=0;strokeColor=default;" parent="1" source="DOnnzGHvciUqaRiP9nLU-9" edge="1">
          <mxGeometry relative="1" as="geometry">
            <mxPoint x="720" y="665" as="targetPoint" />
          </mxGeometry>
        </mxCell>
        <mxCell id="DOnnzGHvciUqaRiP9nLU-9" value="Просмотр общей информации о клиентах" style="ellipse;whiteSpace=wrap;html=1;fontSize=14;" parent="1" vertex="1">
          <mxGeometry x="480" y="630" width="200" height="70" as="geometry" />
        </mxCell>
        <mxCell id="DOnnzGHvciUqaRiP9nLU-13" value="Авторизация" style="ellipse;whiteSpace=wrap;html=1;fontSize=14;" parent="1" vertex="1">
          <mxGeometry x="980" y="480" width="200" height="70" as="geometry" />
        </mxCell>
        <mxCell id="DOnnzGHvciUqaRiP9nLU-14" style="edgeStyle=orthogonalEdgeStyle;rounded=0;html=1;exitX=0;exitY=0.5;exitDx=0;exitDy=0;endArrow=none;endFill=0;" parent="1" source="DOnnzGHvciUqaRiP9nLU-15" edge="1">
          <mxGeometry relative="1" as="geometry">
            <mxPoint x="940" y="710" as="targetPoint" />
            <Array as="points">
              <mxPoint x="940" y="805" />
              <mxPoint x="940" y="760" />
            </Array>
          </mxGeometry>
        </mxCell>
        <mxCell id="DOnnzGHvciUqaRiP9nLU-15" value="Просмотр информации&lt;br&gt;о фитнес-клубе" style="ellipse;whiteSpace=wrap;html=1;fontSize=14;" parent="1" vertex="1">
          <mxGeometry x="980" y="770" width="200" height="70" as="geometry" />
        </mxCell>
        <mxCell id="DOnnzGHvciUqaRiP9nLU-16" style="edgeStyle=orthogonalEdgeStyle;rounded=0;html=1;endArrow=none;endFill=0;" parent="1" source="DOnnzGHvciUqaRiP9nLU-30" edge="1">
          <mxGeometry relative="1" as="geometry">
            <mxPoint x="770" y="710" as="targetPoint" />
            <Array as="points">
              <mxPoint x="720" y="815" />
              <mxPoint x="720" y="710" />
            </Array>
            <mxPoint x="680" y="855" as="sourcePoint" />
          </mxGeometry>
        </mxCell>
        <mxCell id="DOnnzGHvciUqaRiP9nLU-19" value="" style="endArrow=none;html=1;rounded=0;exitX=0;exitY=0.5;exitDx=0;exitDy=0;entryX=1;entryY=0.5;entryDx=0;entryDy=0;edgeStyle=orthogonalEdgeStyle;" parent="1" source="DOnnzGHvciUqaRiP9nLU-7" target="DOnnzGHvciUqaRiP9nLU-20" edge="1">
          <mxGeometry width="50" height="50" relative="1" as="geometry">
            <mxPoint x="840" y="880" as="sourcePoint" />
            <mxPoint x="380" y="590" as="targetPoint" />
          </mxGeometry>
        </mxCell>
        <mxCell id="DOnnzGHvciUqaRiP9nLU-20" value="Расписание &lt;br&gt;групповых тренировок&lt;br&gt;с фильтрами" style="ellipse;whiteSpace=wrap;html=1;fontSize=14;" parent="1" vertex="1">
          <mxGeometry x="190" y="590" width="200" height="70" as="geometry" />
        </mxCell>
        <mxCell id="DOnnzGHvciUqaRiP9nLU-21" value="Расписание cвоих персональных&amp;nbsp;&lt;br&gt;тренировок" style="ellipse;whiteSpace=wrap;html=1;fontSize=14;" parent="1" vertex="1">
          <mxGeometry x="190" y="490" width="200" height="70" as="geometry" />
        </mxCell>
        <mxCell id="DOnnzGHvciUqaRiP9nLU-22" value="" style="endArrow=none;html=1;rounded=0;exitX=0;exitY=0.5;exitDx=0;exitDy=0;entryX=1;entryY=0.5;entryDx=0;entryDy=0;edgeStyle=orthogonalEdgeStyle;" parent="1" source="DOnnzGHvciUqaRiP9nLU-7" target="DOnnzGHvciUqaRiP9nLU-21" edge="1">
          <mxGeometry width="50" height="50" relative="1" as="geometry">
            <mxPoint x="840" y="880" as="sourcePoint" />
            <mxPoint x="890" y="830" as="targetPoint" />
          </mxGeometry>
        </mxCell>
        <mxCell id="DOnnzGHvciUqaRiP9nLU-29" value="" style="endArrow=none;html=1;rounded=0;" parent="1" edge="1">
          <mxGeometry width="50" height="50" relative="1" as="geometry">
            <mxPoint x="890" y="700" as="sourcePoint" />
            <mxPoint x="940" y="700" as="targetPoint" />
          </mxGeometry>
        </mxCell>
        <mxCell id="DOnnzGHvciUqaRiP9nLU-30" value="Изменение расписания" style="ellipse;whiteSpace=wrap;html=1;fontSize=14;" parent="1" vertex="1">
          <mxGeometry x="480" y="780" width="200" height="70" as="geometry" />
        </mxCell>
        <mxCell id="DOnnzGHvciUqaRiP9nLU-31" value="" style="endArrow=none;html=1;rounded=0;exitX=0;exitY=0.5;exitDx=0;exitDy=0;entryX=1;entryY=0.5;entryDx=0;entryDy=0;edgeStyle=orthogonalEdgeStyle;" parent="1" target="DOnnzGHvciUqaRiP9nLU-32" edge="1">
          <mxGeometry width="50" height="50" relative="1" as="geometry">
            <mxPoint x="480" y="815" as="sourcePoint" />
            <mxPoint x="380" y="840" as="targetPoint" />
          </mxGeometry>
        </mxCell>
        <mxCell id="DOnnzGHvciUqaRiP9nLU-32" value="Свои групповые тренировки" style="ellipse;whiteSpace=wrap;html=1;fontSize=14;" parent="1" vertex="1">
          <mxGeometry x="190" y="840" width="200" height="70" as="geometry" />
        </mxCell>
        <mxCell id="DOnnzGHvciUqaRiP9nLU-33" value="Свои персональные тренировки" style="ellipse;whiteSpace=wrap;html=1;fontSize=14;" parent="1" vertex="1">
          <mxGeometry x="190" y="740" width="200" height="70" as="geometry" />
        </mxCell>
        <mxCell id="DOnnzGHvciUqaRiP9nLU-34" value="" style="endArrow=none;html=1;rounded=0;exitX=0;exitY=0.5;exitDx=0;exitDy=0;entryX=1;entryY=0.5;entryDx=0;entryDy=0;edgeStyle=orthogonalEdgeStyle;" parent="1" target="DOnnzGHvciUqaRiP9nLU-33" edge="1">
          <mxGeometry width="50" height="50" relative="1" as="geometry">
            <mxPoint x="480" y="815" as="sourcePoint" />
            <mxPoint x="890" y="1080" as="targetPoint" />
          </mxGeometry>
        </mxCell>
      </root>
    </mxGraphModel>
  </diagram>
  <diagram id="2Xiz0Z4KQmlQhsr0WnHF" name="guest">
    <mxGraphModel dx="1380" dy="843" grid="1" gridSize="10" guides="1" tooltips="1" connect="1" arrows="1" fold="1" page="1" pageScale="1" pageWidth="1100" pageHeight="850" math="0" shadow="0">
      <root>
        <mxCell id="0" />
        <mxCell id="1" parent="0" />
        <mxCell id="ff7czljvNgr9tOmMpvD9-1" value="&lt;span style=&quot;font-size: 14px;&quot;&gt;Гость&lt;/span&gt;" style="shape=umlActor;verticalLabelPosition=bottom;verticalAlign=top;html=1;" parent="1" vertex="1">
          <mxGeometry x="900" y="490" width="90" height="150" as="geometry" />
        </mxCell>
        <mxCell id="ff7czljvNgr9tOmMpvD9-3" value="Просмотр расписания групповых тренировок" style="ellipse;whiteSpace=wrap;html=1;fontSize=14;" parent="1" vertex="1">
          <mxGeometry x="1090" y="470" width="200" height="70" as="geometry" />
        </mxCell>
        <mxCell id="ff7czljvNgr9tOmMpvD9-14" style="edgeStyle=orthogonalEdgeStyle;rounded=0;html=1;exitX=0;exitY=0.5;exitDx=0;exitDy=0;endArrow=none;endFill=0;entryX=0;entryY=0.5;entryDx=0;entryDy=0;" parent="1" source="ff7czljvNgr9tOmMpvD9-15" target="ff7czljvNgr9tOmMpvD9-3" edge="1">
          <mxGeometry relative="1" as="geometry">
            <mxPoint x="1050" y="520" as="targetPoint" />
            <Array as="points">
              <mxPoint x="1090" y="600" />
              <mxPoint x="1050" y="600" />
              <mxPoint x="1050" y="505" />
            </Array>
          </mxGeometry>
        </mxCell>
        <mxCell id="ff7czljvNgr9tOmMpvD9-15" value="Просмотр информации&lt;br&gt;о фитнес-клубе" style="ellipse;whiteSpace=wrap;html=1;fontSize=14;" parent="1" vertex="1">
          <mxGeometry x="1090" y="560" width="200" height="70" as="geometry" />
        </mxCell>
        <mxCell id="ff7czljvNgr9tOmMpvD9-18" style="edgeStyle=orthogonalEdgeStyle;rounded=0;html=1;exitX=0;exitY=0.5;exitDx=0;exitDy=0;endArrow=none;endFill=0;" parent="1" source="ff7czljvNgr9tOmMpvD9-15" edge="1">
          <mxGeometry relative="1" as="geometry">
            <mxPoint x="1000" y="570" as="targetPoint" />
            <Array as="points">
              <mxPoint x="1090" y="600" />
              <mxPoint x="1050" y="600" />
              <mxPoint x="1050" y="570" />
            </Array>
            <mxPoint x="1090" y="705" as="sourcePoint" />
          </mxGeometry>
        </mxCell>
        <mxCell id="ff7czljvNgr9tOmMpvD9-24" value="Общая информация" style="ellipse;whiteSpace=wrap;html=1;fontSize=14;" parent="1" vertex="1">
          <mxGeometry x="1340" y="510" width="200" height="70" as="geometry" />
        </mxCell>
        <mxCell id="ff7czljvNgr9tOmMpvD9-25" value="" style="endArrow=none;html=1;rounded=0;entryX=0;entryY=0.5;entryDx=0;entryDy=0;exitX=1;exitY=0.5;exitDx=0;exitDy=0;edgeStyle=orthogonalEdgeStyle;" parent="1" source="ff7czljvNgr9tOmMpvD9-15" target="ff7czljvNgr9tOmMpvD9-24" edge="1">
          <mxGeometry width="50" height="50" relative="1" as="geometry">
            <mxPoint x="950" y="620" as="sourcePoint" />
            <mxPoint x="1000" y="570" as="targetPoint" />
          </mxGeometry>
        </mxCell>
        <mxCell id="ff7czljvNgr9tOmMpvD9-27" value="Информация&amp;nbsp; о тренерах" style="ellipse;whiteSpace=wrap;html=1;fontSize=14;" parent="1" vertex="1">
          <mxGeometry x="1340" y="600" width="200" height="70" as="geometry" />
        </mxCell>
        <mxCell id="ff7czljvNgr9tOmMpvD9-28" value="" style="endArrow=none;html=1;rounded=0;entryX=0;entryY=0.5;entryDx=0;entryDy=0;exitX=1;exitY=0.5;exitDx=0;exitDy=0;edgeStyle=orthogonalEdgeStyle;" parent="1" source="ff7czljvNgr9tOmMpvD9-15" target="ff7czljvNgr9tOmMpvD9-27" edge="1">
          <mxGeometry width="50" height="50" relative="1" as="geometry">
            <mxPoint x="950" y="620" as="sourcePoint" />
            <mxPoint x="1000" y="570" as="targetPoint" />
          </mxGeometry>
        </mxCell>
        <mxCell id="IjzU2jVajcQiIWAPt-5x-1" value="Регистрация" style="ellipse;whiteSpace=wrap;html=1;fontSize=14;" parent="1" vertex="1">
          <mxGeometry x="1090" y="650" width="200" height="70" as="geometry" />
        </mxCell>
        <mxCell id="IjzU2jVajcQiIWAPt-5x-2" style="edgeStyle=orthogonalEdgeStyle;rounded=0;html=1;endArrow=none;endFill=0;" parent="1" source="IjzU2jVajcQiIWAPt-5x-1" edge="1">
          <mxGeometry relative="1" as="geometry">
            <mxPoint x="1000" y="570" as="targetPoint" />
            <Array as="points">
              <mxPoint x="1050" y="685" />
              <mxPoint x="1050" y="570" />
            </Array>
            <mxPoint x="1090" y="615" as="sourcePoint" />
          </mxGeometry>
        </mxCell>
      </root>
    </mxGraphModel>
  </diagram>
</mxfile>
